<?xml version="1.0" encoding="utf-8"?>
<!-- Generator: Adobe Illustrator 19.2.0, SVG Export Plug-In . SVG Version: 6.00 Build 0)  -->
<svg version="1.1" id="Layer_1" xmlns="http://www.w3.org/2000/svg" xmlns:xlink="http://www.w3.org/1999/xlink" x="0px" y="0px"
	 viewBox="0 0 700 500" enable-background="new 0 0 700 500" xml:space="preserve">
<g>
	<g>
		<g>
			<path fill="#FFFFFF" d="M226.532,239.117h14.079c3.365,0,6.338,0.642,8.921,1.926c2.583,1.284,4.59,3.092,6.021,5.424
				c1.431,2.332,2.147,5.047,2.147,8.147c0,3.099-0.716,5.815-2.147,8.146c-1.432,2.332-3.439,4.14-6.021,5.424
				c-2.583,1.284-5.556,1.926-8.921,1.926h-14.079V239.117z M240.257,264.22c3.099,0,5.571-0.863,7.416-2.59
				c1.844-1.727,2.767-4.066,2.767-7.017c0-2.951-0.923-5.291-2.767-7.017c-1.845-1.727-4.317-2.59-7.416-2.59h-6.553v19.215
				H240.257z"/>
			<path fill="#FFFFFF" d="M263.103,239.117h7.173v30.992h-7.173V239.117z"/>
			<path fill="#FFFFFF" d="M298.566,254.126h6.553V266.7c-1.682,1.269-3.631,2.243-5.844,2.922
				c-2.214,0.679-4.443,1.018-6.685,1.018c-3.217,0-6.11-0.686-8.678-2.059c-2.568-1.372-4.583-3.276-6.044-5.711
				c-1.461-2.435-2.191-5.187-2.191-8.257c0-3.069,0.731-5.822,2.191-8.257c1.461-2.435,3.49-4.339,6.088-5.711
				c2.597-1.372,5.519-2.059,8.766-2.059c2.715,0,5.18,0.458,7.394,1.372c2.214,0.915,4.073,2.244,5.579,3.985l-4.604,4.25
				c-2.214-2.332-4.886-3.498-8.014-3.498c-1.978,0-3.734,0.414-5.269,1.24c-1.535,0.827-2.73,1.992-3.586,3.498
				c-0.857,1.505-1.284,3.232-1.284,5.18c0,1.919,0.427,3.631,1.284,5.136c0.856,1.505,2.043,2.679,3.564,3.52
				c1.52,0.841,3.254,1.262,5.202,1.262c2.066,0,3.925-0.443,5.579-1.328V254.126z"/>
			<path fill="#FFFFFF" d="M311.759,239.117h7.173v30.992h-7.173V239.117z"/>
			<path fill="#FFFFFF" d="M332.701,244.961h-9.917v-5.844h27.007v5.844h-9.917v25.148h-7.173V244.961z"/>
			<path fill="#FFFFFF" d="M372.504,263.468h-14.389l-2.745,6.641h-7.349l13.813-30.992h7.084l13.858,30.992h-7.527L372.504,263.468
				z M370.246,258.022l-4.914-11.865l-4.914,11.865H370.246z"/>
			<path fill="#FFFFFF" d="M386.007,239.117h7.173v25.148h15.54v5.844h-22.713V239.117z"/>
			<path fill="#FFFFFF" d="M439.668,256.805c1.003,1.314,1.505,2.93,1.505,4.848c0,2.716-1.056,4.804-3.166,6.265
				c-2.11,1.461-5.188,2.192-9.231,2.192h-16.027v-30.992h15.142c3.778,0,6.678,0.723,8.7,2.169
				c2.021,1.446,3.033,3.409,3.033,5.888c0,1.505-0.362,2.849-1.085,4.029c-0.724,1.181-1.735,2.11-3.033,2.789
				C437.277,254.554,438.664,255.492,439.668,256.805z M419.877,244.518v7.305h7.128c1.771,0,3.114-0.31,4.029-0.93
				c0.914-0.62,1.372-1.534,1.372-2.745c0-1.21-0.458-2.117-1.372-2.723c-0.915-0.605-2.258-0.908-4.029-0.908H419.877z
				 M432.517,263.778c0.959-0.62,1.439-1.579,1.439-2.878c0-2.568-1.904-3.852-5.711-3.852h-8.368v7.66h8.368
				C430.133,264.708,431.558,264.398,432.517,263.778z"/>
			<path fill="#FFFFFF" d="M452.928,268.559c-2.583-1.387-4.605-3.298-6.066-5.734c-1.461-2.435-2.191-5.173-2.191-8.213
				c0-3.04,0.731-5.778,2.191-8.213c1.461-2.435,3.483-4.346,6.066-5.734c2.583-1.387,5.483-2.081,8.7-2.081
				c3.217,0,6.11,0.694,8.678,2.081c2.568,1.388,4.589,3.299,6.065,5.734c1.476,2.435,2.214,5.173,2.214,8.213
				c0,3.04-0.738,5.778-2.214,8.213c-1.476,2.435-3.498,4.347-6.065,5.734c-2.568,1.388-5.461,2.081-8.678,2.081
				C458.41,270.64,455.51,269.947,452.928,268.559z M466.587,263.269c1.475-0.841,2.634-2.015,3.475-3.52
				c0.841-1.505,1.262-3.217,1.262-5.136c0-1.918-0.42-3.631-1.262-5.136c-0.841-1.505-2-2.679-3.475-3.52
				c-1.477-0.841-3.129-1.262-4.959-1.262c-1.831,0-3.483,0.42-4.959,1.262c-1.477,0.841-2.635,2.014-3.475,3.52
				c-0.841,1.505-1.262,3.217-1.262,5.136c0,1.919,0.421,3.631,1.262,5.136c0.841,1.505,1.999,2.679,3.475,3.52
				c1.476,0.841,3.128,1.262,4.959,1.262C463.457,264.53,465.11,264.11,466.587,263.269z"/>
			<path fill="#FFFFFF" d="M495.276,257.933l-4.162,4.339v7.837h-7.128v-30.992h7.128v14.478l13.725-14.478h7.969l-12.84,13.813
				l13.592,17.179h-8.368L495.276,257.933z"/>
		</g>
	</g>
	<g>
		<g>
			<path fill="#56B8E6" d="M219.327,229.36v36.404c0,2.693-2.183,4.877-4.877,4.877h-4.196v-36.404c0-2.693,2.183-4.877,4.877-4.877
				H219.327z"/>
			<path fill="#56B8E6" d="M207.532,239.453v25.63c0,3.069-2.488,5.557-5.557,5.557h-3.629v-25.63c0-3.069,2.488-5.557,5.557-5.557
				H207.532z"/>
			<path fill="#56B8E6" d="M195.624,250.567v16.217c0,2.13-1.726,3.856-3.856,3.856h-5.33v-14.573c0-3.038,2.463-5.5,5.5-5.5
				H195.624z"/>
		</g>
	</g>
</g>
</svg>
